<?xml version="1.0" encoding="utf-8"?>
<!-- Generator: Adobe Illustrator 22.0.0, SVG Export Plug-In . SVG Version: 6.00 Build 0)  -->
<svg version="1.1" id="Layer_1" xmlns="http://www.w3.org/2000/svg" xmlns:xlink="http://www.w3.org/1999/xlink" x="0px" y="0px"
	 viewBox="0 0 1368.9 781" style="enable-background:new 0 0 1368.9 781;" xml:space="preserve">
<style type="text/css">
	.st0{display:none;opacity:0.2;}
	.st1{display:inline;fill:#A3DAD7;}
	.st2{display:inline;fill:#FCC048;}
	.st3{display:inline;}
	.st4{fill:#FCC048;}
	.st5{display:inline;fill:#FFD4AF;}
	.st6{display:inline;fill:#00A092;}
	.st7{fill:#00A092;}
	.st8{display:inline;fill:#EF6034;}
	.st9{opacity:0.19;fill:#EA6642;enable-background:new    ;}
	.st10{opacity:0.64;fill:#EA6642;enable-background:new    ;}
	.st11{font-family:'Arial-BoldMT';}
	.st12{font-size:48px;}
	.st13{fill:#EA6642;}
	.st14{fill:#2F2E41;}
	.st15{fill:#FFC1C7;}
	.st16{opacity:0.1;enable-background:new    ;}
	.st17{fill:none;stroke:#2F2E41;stroke-miterlimit:10;}
	.st18{font-family:'ArialMT';}
	.st19{font-size:36px;}
</style>
<title>Artboards</title>
<g class="st0">
	<rect x="1.8" y="8.7" class="st1" width="1365.2" height="768.7"/>
	<rect x="41.6" y="153.5" class="st2" width="112.9" height="134"/>
	<g class="st3">
		<polygon class="st4" points="608.5,553 622.1,576.6 594.9,576.6 		"/>
		<polygon class="st4" points="664.6,553 678.3,576.6 651,576.6 		"/>
		<polygon class="st4" points="720.8,553 734.4,576.6 707.2,576.6 		"/>
		<polygon class="st4" points="777,553 790.6,576.6 763.3,576.6 		"/>
		<polygon class="st4" points="833.1,553 846.7,576.6 819.5,576.6 		"/>
		<polygon class="st4" points="889.3,553 902.9,576.6 875.6,576.6 		"/>
		<polygon class="st4" points="945.4,553 959,576.6 931.8,576.6 		"/>
		<polygon class="st4" points="636.6,595.7 650.2,619.3 623,619.3 		"/>
		<polygon class="st4" points="693.6,595.7 707.2,619.3 680,619.3 		"/>
		<polygon class="st4" points="750.6,595.7 764.2,619.3 736.9,619.3 		"/>
		<polygon class="st4" points="807.6,595.7 821.2,619.3 793.9,619.3 		"/>
		<polygon class="st4" points="864.5,595.7 878.2,619.3 850.9,619.3 		"/>
		<polygon class="st4" points="921.5,595.7 935.2,619.3 907.9,619.3 		"/>
		<polygon class="st4" points="608.5,633.7 622.1,657.2 594.9,657.2 		"/>
		<polygon class="st4" points="664.6,633.7 678.3,657.2 651,657.2 		"/>
		<polygon class="st4" points="720.8,633.7 734.4,657.2 707.2,657.2 		"/>
		<polygon class="st4" points="777,633.7 790.6,657.2 763.3,657.2 		"/>
		<polygon class="st4" points="833.1,633.7 846.7,657.2 819.5,657.2 		"/>
		<polygon class="st4" points="889.3,633.7 902.9,657.2 875.6,657.2 		"/>
		<polygon class="st4" points="945.4,633.7 959,657.2 931.8,657.2 		"/>
		<polygon class="st4" points="636.6,676.4 650.2,699.9 623,699.9 		"/>
		<polygon class="st4" points="693.6,676.4 707.2,699.9 680,699.9 		"/>
		<polygon class="st4" points="750.6,676.4 764.2,699.9 736.9,699.9 		"/>
		<polygon class="st4" points="807.6,676.4 821.2,699.9 793.9,699.9 		"/>
		<polygon class="st4" points="864.5,676.4 878.2,699.9 850.9,699.9 		"/>
		<polygon class="st4" points="921.5,676.4 935.2,699.9 907.9,699.9 		"/>
		<polygon class="st4" points="608.5,714.3 622.1,737.9 594.9,737.9 		"/>
		<polygon class="st4" points="664.6,714.3 678.3,737.9 651,737.9 		"/>
		<polygon class="st4" points="720.8,714.3 734.4,737.9 707.2,737.9 		"/>
		<polygon class="st4" points="777,714.3 790.6,737.9 763.3,737.9 		"/>
		<polygon class="st4" points="833.1,714.3 846.7,737.9 819.5,737.9 		"/>
		<polygon class="st4" points="889.3,714.3 902.9,737.9 875.6,737.9 		"/>
		<polygon class="st4" points="945.4,714.3 959,737.9 931.8,737.9 		"/>
	</g>
	<rect x="935.9" y="468" class="st5" width="174.8" height="245"/>
	<polygon class="st6" points="1062,426.2 1075.4,449.5 1048.5,449.5 	"/>
	<polygon class="st6" points="1118.3,426.2 1131.7,449.5 1104.8,449.5 	"/>
	<polygon class="st6" points="1174.6,426.2 1188,449.5 1161.1,449.5 	"/>
	<polygon class="st6" points="1230.9,426.2 1244.3,449.5 1217.4,449.5 	"/>
	<polygon class="st6" points="1287.2,426.2 1300.7,449.5 1273.7,449.5 	"/>
	<polygon class="st6" points="1343.5,426.2 1357,449.5 1330.1,449.5 	"/>
	<polygon class="st6" points="1034.2,463.7 1047.7,487 1020.8,487 	"/>
	<polygon class="st6" points="1089.7,463.7 1103.2,487 1076.2,487 	"/>
	<polygon class="st6" points="1145.2,463.7 1158.6,487 1131.7,487 	"/>
	<polygon class="st6" points="1200.7,463.7 1214.1,487 1187.2,487 	"/>
	<polygon class="st6" points="1256.1,463.7 1269.6,487 1242.7,487 	"/>
	<polygon class="st6" points="1311.6,463.7 1325.1,487 1298.2,487 	"/>
	<polygon class="st6" points="1062,505.9 1075.4,529.2 1048.5,529.2 	"/>
	<polygon class="st6" points="1118.3,505.9 1131.7,529.2 1104.8,529.2 	"/>
	<polygon class="st6" points="1174.6,505.9 1188,529.2 1161.1,529.2 	"/>
	<polygon class="st6" points="1230.9,505.9 1244.3,529.2 1217.4,529.2 	"/>
	<polygon class="st6" points="1287.2,505.9 1300.7,529.2 1273.7,529.2 	"/>
	<polygon class="st6" points="1343.5,505.9 1357,529.2 1330.1,529.2 	"/>
	<polygon class="st6" points="1034.2,543.4 1047.7,566.7 1020.8,566.7 	"/>
	<polygon class="st6" points="1089.7,543.4 1103.2,566.7 1076.2,566.7 	"/>
	<polygon class="st6" points="1145.2,543.4 1158.6,566.7 1131.7,566.7 	"/>
	<polygon class="st6" points="1200.7,543.4 1214.1,566.7 1187.2,566.7 	"/>
	<polygon class="st6" points="1256.1,543.4 1269.6,566.7 1242.7,566.7 	"/>
	<polygon class="st6" points="1311.6,543.4 1325.1,566.7 1298.2,566.7 	"/>
	<polygon class="st6" points="1062,585.6 1075.4,608.9 1048.5,608.9 	"/>
	<polygon class="st6" points="1118.3,585.6 1131.7,608.9 1104.8,608.9 	"/>
	<polygon class="st6" points="1174.6,585.6 1188,608.9 1161.1,608.9 	"/>
	<polygon class="st6" points="1230.9,585.6 1244.3,608.9 1217.4,608.9 	"/>
	<polygon class="st6" points="1287.2,585.6 1300.7,608.9 1273.7,608.9 	"/>
	<polygon class="st6" points="1343.5,585.6 1357,608.9 1330.1,608.9 	"/>
	<polygon class="st6" points="1034.2,623.1 1047.7,646.4 1020.8,646.4 	"/>
	<polygon class="st6" points="1089.7,623.1 1103.2,646.4 1076.2,646.4 	"/>
	<polygon class="st6" points="1145.2,623.1 1158.6,646.4 1131.7,646.4 	"/>
	<polygon class="st6" points="1200.7,623.1 1214.1,646.4 1187.2,646.4 	"/>
	<polygon class="st6" points="1256.1,623.1 1269.6,646.4 1242.7,646.4 	"/>
	<polygon class="st6" points="1311.6,623.1 1325.1,646.4 1298.2,646.4 	"/>
	<polygon class="st6" points="1347.4,623.1 1360.8,646.4 1333.9,646.4 	"/>
	<polygon class="st6" points="1062,665.2 1075.4,688.5 1048.5,688.5 	"/>
	<polygon class="st6" points="1118.3,665.2 1131.7,688.5 1104.8,688.5 	"/>
	<polygon class="st6" points="1174.6,665.2 1188,688.5 1161.1,688.5 	"/>
	<polygon class="st6" points="1230.9,665.2 1244.3,688.5 1217.4,688.5 	"/>
	<polygon class="st6" points="1287.2,665.2 1300.7,688.5 1273.7,688.5 	"/>
	<polygon class="st6" points="1343.5,665.2 1357,688.5 1330.1,688.5 	"/>
	<polygon class="st6" points="6.4,569 1.8,569 1.8,561.2 	"/>
	<polygon class="st6" points="61.3,538.6 78.9,569 43.7,569 	"/>
	<polygon class="st6" points="133.8,538.6 151.4,569 116.2,569 	"/>
	<polygon class="st6" points="206.3,538.6 223.8,569 188.7,569 	"/>
	<polygon class="st6" points="28.3,593.7 45.9,624.1 10.7,624.1 	"/>
	<polygon class="st6" points="101.9,593.7 119.5,624.1 84.3,624.1 	"/>
	<polygon class="st6" points="175.5,593.7 193,624.1 157.9,624.1 	"/>
	<polygon class="st6" points="6.4,673.1 1.8,673.1 1.8,665.3 	"/>
	<polygon class="st6" points="61.3,642.7 78.9,673.1 43.7,673.1 	"/>
	<polygon class="st6" points="133.8,642.7 151.4,673.1 116.2,673.1 	"/>
	<polygon class="st6" points="206.3,642.7 223.8,673.1 188.7,673.1 	"/>
	<polygon class="st6" points="28.3,697.8 45.9,728.2 10.7,728.2 	"/>
	<polygon class="st6" points="101.9,697.8 119.5,728.2 84.3,728.2 	"/>
	<polygon class="st6" points="175.5,697.8 193,728.2 157.9,728.2 	"/>
	<g class="st3">
		<circle class="st7" cx="38.8" cy="402.6" r="10.5"/>
		<circle class="st7" cx="63.8" cy="375.3" r="10.5"/>
		<circle class="st7" cx="88.7" cy="348" r="10.5"/>
		<circle class="st7" cx="113.7" cy="320.6" r="10.5"/>
		<circle class="st7" cx="138.7" cy="293.3" r="10.5"/>
		<circle class="st7" cx="163.6" cy="266" r="10.5"/>
		<circle class="st7" cx="188.6" cy="238.7" r="10.5"/>
		<circle class="st7" cx="213.5" cy="211.4" r="10.5"/>
		<circle class="st7" cx="238.5" cy="184.1" r="10.5"/>
		<circle class="st7" cx="60.2" cy="422.1" r="10.5"/>
		<circle class="st7" cx="85.2" cy="394.8" r="10.5"/>
		<circle class="st7" cx="110.1" cy="367.5" r="10.5"/>
		<circle class="st7" cx="135.1" cy="340.2" r="10.5"/>
		<circle class="st7" cx="160.1" cy="312.9" r="10.5"/>
		<circle class="st7" cx="185" cy="285.6" r="10.5"/>
		<circle class="st7" cx="210" cy="258.3" r="10.5"/>
		<circle class="st7" cx="234.9" cy="231" r="10.5"/>
		<circle class="st7" cx="259.9" cy="203.7" r="10.5"/>
		<circle class="st7" cx="81.6" cy="441.7" r="10.5"/>
		<circle class="st7" cx="106.6" cy="414.4" r="10.5"/>
		<circle class="st7" cx="131.5" cy="387.1" r="10.5"/>
		<circle class="st7" cx="156.5" cy="359.8" r="10.5"/>
		<circle class="st7" cx="181.5" cy="332.5" r="10.5"/>
		<circle class="st7" cx="206.4" cy="305.2" r="10.5"/>
		<circle class="st7" cx="231.4" cy="277.8" r="10.5"/>
		<ellipse class="st7" cx="256.3" cy="250.5" rx="10.5" ry="10.5"/>
		<circle class="st7" cx="281.3" cy="223.2" r="10.5"/>
		<circle class="st7" cx="103" cy="461.3" r="10.5"/>
		<circle class="st7" cx="128" cy="434" r="10.5"/>
		<circle class="st7" cx="152.9" cy="406.7" r="10.5"/>
		<circle class="st7" cx="177.9" cy="379.3" r="10.5"/>
		<circle class="st7" cx="202.9" cy="352" r="10.5"/>
		<circle class="st7" cx="227.8" cy="324.7" r="10.5"/>
		
			<ellipse transform="matrix(0.4641 -0.8858 0.8858 0.4641 -127.9392 383.2781)" class="st7" cx="252.8" cy="297.4" rx="10.5" ry="10.5"/>
		<circle class="st7" cx="277.8" cy="270.1" r="10.5"/>
		<circle class="st7" cx="302.7" cy="242.8" r="10.5"/>
		<circle class="st7" cx="124.4" cy="480.8" r="10.5"/>
		<circle class="st7" cx="149.4" cy="453.5" r="10.5"/>
		<circle class="st7" cx="174.3" cy="426.2" r="10.5"/>
		<circle class="st7" cx="199.3" cy="398.9" r="10.5"/>
		<circle class="st7" cx="224.3" cy="371.6" r="10.5"/>
		
			<ellipse transform="matrix(0.4641 -0.8858 0.8858 0.4641 -171.457 405.2879)" class="st7" cx="249.2" cy="344.3" rx="10.5" ry="10.5"/>
		<circle class="st7" cx="274.2" cy="317" r="10.5"/>
		<circle class="st7" cx="299.2" cy="289.7" r="10.5"/>
		<circle class="st7" cx="324.1" cy="262.4" r="10.5"/>
		<circle class="st7" cx="145.8" cy="500.4" r="10.5"/>
		<circle class="st7" cx="170.8" cy="473.1" r="10.5"/>
		<circle class="st7" cx="195.8" cy="445.8" r="10.5"/>
		<circle class="st7" cx="220.7" cy="418.5" r="10.5"/>
		
			<ellipse transform="matrix(0.3162 -0.9487 0.9487 0.3162 -203.1211 500.5877)" class="st7" cx="245.7" cy="391.2" rx="10.5" ry="10.5"/>
		<circle class="st7" cx="270.6" cy="363.9" r="10.5"/>
		<circle class="st7" cx="295.6" cy="336.5" r="10.5"/>
		<circle class="st7" cx="320.6" cy="309.2" r="10.5"/>
		<circle class="st7" cx="345.5" cy="281.9" r="10.5"/>
		<circle class="st7" cx="167.2" cy="520" r="10.5"/>
		<circle class="st7" cx="192.2" cy="492.7" r="10.5"/>
		<circle class="st7" cx="217.2" cy="465.3" r="10.5"/>
		<circle class="st7" cx="242.1" cy="438" r="10.5"/>
		<circle class="st7" cx="267.1" cy="410.7" r="10.5"/>
		<circle class="st7" cx="292" cy="383.4" r="10.5"/>
		<circle class="st7" cx="317" cy="356.1" r="10.5"/>
		<circle class="st7" cx="342" cy="328.8" r="10.5"/>
		<circle class="st7" cx="366.9" cy="301.5" r="10.5"/>
		<circle class="st7" cx="188.6" cy="539.5" r="10.5"/>
		<circle class="st7" cx="213.6" cy="512.2" r="10.5"/>
		<circle class="st7" cx="238.6" cy="484.9" r="10.5"/>
		<circle class="st7" cx="263.5" cy="457.6" r="10.5"/>
		<circle class="st7" cx="288.5" cy="430.3" r="10.5"/>
		<circle class="st7" cx="313.5" cy="403" r="10.5"/>
		<circle class="st7" cx="338.4" cy="375.7" r="10.5"/>
		<circle class="st7" cx="363.4" cy="348.4" r="10.5"/>
		<circle class="st7" cx="388.3" cy="321.1" r="10.5"/>
		<circle class="st7" cx="210" cy="559.1" r="10.5"/>
		<circle class="st7" cx="235" cy="531.8" r="10.5"/>
		<circle class="st7" cx="260" cy="504.5" r="10.5"/>
		<circle class="st7" cx="284.9" cy="477.2" r="10.5"/>
		<circle class="st7" cx="309.9" cy="449.9" r="10.5"/>
		<circle class="st7" cx="334.9" cy="422.5" r="10.5"/>
		<circle class="st7" cx="359.8" cy="395.2" r="10.5"/>
		<circle class="st7" cx="384.8" cy="367.9" r="10.5"/>
		<circle class="st7" cx="409.7" cy="340.6" r="10.5"/>
		<circle class="st7" cx="231.4" cy="578.7" r="10.5"/>
		<circle class="st7" cx="256.4" cy="551.4" r="10.5"/>
		<circle class="st7" cx="281.4" cy="524" r="10.5"/>
		<circle class="st7" cx="306.3" cy="496.7" r="10.5"/>
		<circle class="st7" cx="331.3" cy="469.4" r="10.5"/>
		<circle class="st7" cx="356.3" cy="442.1" r="10.5"/>
		<circle class="st7" cx="381.2" cy="414.8" r="10.5"/>
		<circle class="st7" cx="406.2" cy="387.5" r="10.5"/>
		<circle class="st7" cx="431.2" cy="360.2" r="10.5"/>
		
			<ellipse transform="matrix(0.1602 -0.9871 0.9871 0.1602 -378.1698 751.9147)" class="st7" cx="252.8" cy="598.2" rx="10.5" ry="10.5"/>
		<circle class="st7" cx="277.8" cy="570.9" r="10.5"/>
		<circle class="st7" cx="302.8" cy="543.6" r="10.5"/>
		<circle class="st7" cx="327.7" cy="516.3" r="10.5"/>
		<circle class="st7" cx="352.7" cy="489" r="10.5"/>
		<circle class="st7" cx="377.7" cy="461.7" r="10.5"/>
		<circle class="st7" cx="402.6" cy="434.4" r="10.5"/>
		<circle class="st7" cx="427.6" cy="407.1" r="10.5"/>
		<circle class="st7" cx="452.6" cy="379.8" r="10.5"/>
		<circle class="st7" cx="274.3" cy="617.8" r="10.5"/>
		<circle class="st7" cx="299.2" cy="590.5" r="10.5"/>
		<circle class="st7" cx="324.2" cy="563.2" r="10.5"/>
		<circle class="st7" cx="349.1" cy="535.9" r="10.5"/>
		<circle class="st7" cx="374.1" cy="508.6" r="10.5"/>
		<circle class="st7" cx="399.1" cy="481.2" r="10.5"/>
		<circle class="st7" cx="424" cy="453.9" r="10.5"/>
		<circle class="st7" cx="449" cy="426.6" r="10.5"/>
		<circle class="st7" cx="474" cy="399.3" r="10.5"/>
	</g>
	<polygon class="st2" points="353.2,482.5 342.2,488.9 290.6,519.1 272.5,529.7 243.2,546.8 225.5,557.2 220.5,560.1 205.8,568.7 
		65.9,650.6 52.1,658.7 52.1,658.7 1.8,688 1.8,409.8 20.3,413.6 32.1,416 50,419.7 67.8,423.4 70.5,424 85.6,427.1 103.2,430.7 
		114.9,433.2 117.5,433.7 137.7,437.9 185.4,447.8 204.4,451.7 222.7,455.5 254,461.9 254,461.9 270.6,465.4 270.6,465.4 
		280.9,467.5 280.9,467.5 292.5,469.9 292.5,469.9 323.3,476.3 323.3,476.3 335.9,478.9 345.9,481 	"/>
	<polygon class="st8" points="247,564 225.5,557.2 219.9,555.5 204,550.5 195.2,547.8 178.6,542.6 1.8,487.4 1.8,378.1 100.3,287.5 
		154.5,237.5 170.4,222.8 182.3,275.5 182.3,275.5 186.9,295.9 197.4,343 201.8,362.5 201.8,362.5 209.2,395.2 209.8,398 209.8,398 
		212.8,411.6 216.5,428.1 222.7,455.5 222.9,456.6 226.1,470.8 228.6,481.7 230.9,492.1 237.5,521.6 241.6,539.9 243.2,546.8 	"/>
	<polygon class="st2" points="1314.9,322.3 1367.1,333.1 1367.1,592.2 1314.4,623 1275.3,384.6 1271.6,362.2 1263.3,311.7 	"/>
	<polygon class="st8" points="1314.9,322.3 1367.1,274.2 1367.1,413.3 1275.3,384.6 1254.4,378.1 1271.6,362.2 	"/>
	<ellipse class="st8" cx="965.9" cy="656.9" rx="109.5" ry="109.5"/>
	<path class="st8" d="M166.7,55c0,39.2-31.8,71-71,71s-71-31.8-71-71c0-17,6.1-33.4,17.2-46.3h107.7C160.6,21.5,166.7,38,166.7,55z"
		/>
	<polygon class="st5" points="136.2,397.7 136.2,411.9 123.7,424.4 118.4,429.7 114.9,433.2 96.2,451.9 46.2,401.9 1.8,446.2 
		1.8,432.1 46.2,387.7 96.2,437.7 103.2,430.7 109.4,424.5 116.7,417.3 	"/>
	<polygon class="st5" points="1062.7,620.6 1062.7,634.8 1022.7,674.8 972.7,624.8 922.7,674.8 872.7,624.8 822.7,674.8 
		772.7,624.8 732.7,664.8 732.7,650.6 772.7,610.6 822.7,660.6 872.7,610.6 922.7,660.6 972.7,610.6 1022.7,660.6 	"/>
	<path class="st8" d="M1116.5,99.2C818.1,1,666.1,370.2,379.3,266.8c-0.3-9.8-0.6-19.6-0.9-29.5C660.2,336.7,810-27,1104.9,72.3
		C1108.8,81.3,1112.6,90.2,1116.5,99.2z"/>
	<path class="st6" d="M1106.1,52.9c-298.4-98.1-450.4,271-737.2,167.6c-0.3-9.8-0.6-19.6-0.9-29.5c281.8,99.4,431.5-264.3,726.5-165
		C1098.3,35,1102.2,43.9,1106.1,52.9z"/>
	<path class="st8" d="M886.5,8.7c-17.5,6-34.6,13-51.3,20.9c-113.8,53.6-215,144-336.7,160.5c-43.5,5.9-89.7,2.3-140-15.8
		c-0.3-9.8-0.6-19.6-0.9-29.5c68.5,24.2,129.2,20.9,186.1,3.6C637,120.1,720,53.9,810.2,8.7H886.5z"/>
	<path class="st6" d="M775.8,8.7c-67.5,37.7-132,83.1-201.2,111.2C506,147.8,432.9,158.6,348,128c-0.3-9.8-0.6-19.6-0.9-29.5
		c119.1,42,214.6,1.3,307.5-52.3c21-12.1,41.9-24.9,62.9-37.5L775.8,8.7z"/>
	<path class="st8" d="M687.1,8.7C580.9,72.5,474.6,131,337.6,81.6c-0.3-9.8-0.6-19.6-0.9-29.5c112.5,39.7,204,5.5,292-43.5
		L687.1,8.7z"/>
	
		<rect x="62.3" y="195.2" transform="matrix(0.7071 -0.7071 0.7071 0.7071 -114.9172 129.8293)" class="st1" width="73.9" height="16.9"/>
	
		<rect x="90.8" y="166.7" transform="matrix(0.7071 -0.7071 0.7071 0.7071 -114.9175 129.8276)" class="st1" width="16.9" height="73.9"/>
	<polygon class="st5" points="911.3,368.4 458.4,227 498.5,190.1 543.7,148.4 574.7,119.8 654.6,46.2 695.3,8.7 830.5,8.7 
		835.2,29.6 	"/>
	<g class="st3">
		<polygon class="st4" points="666.1,82.2 680.5,107.2 651.6,107.2 		"/>
		<polygon class="st4" points="725.6,82.2 740,107.2 711.2,107.2 		"/>
		<polygon class="st4" points="785.1,82.2 799.6,107.2 770.7,107.2 		"/>
		<polygon class="st4" points="844.7,82.2 859.1,107.2 830.2,107.2 		"/>
		<polygon class="st4" points="904.2,82.2 918.7,107.2 889.8,107.2 		"/>
		<polygon class="st4" points="963.8,82.2 978.2,107.2 949.3,107.2 		"/>
		<polygon class="st4" points="1023.3,82.2 1037.7,107.2 1008.9,107.2 		"/>
		<polygon class="st4" points="695.8,127.5 710.3,152.5 681.4,152.5 		"/>
		<polygon class="st4" points="756.3,127.5 770.7,152.5 741.8,152.5 		"/>
		<polygon class="st4" points="816.7,127.5 831.1,152.5 802.3,152.5 		"/>
		<polygon class="st4" points="877.1,127.5 891.6,152.5 862.7,152.5 		"/>
		<polygon class="st4" points="937.6,127.5 952,152.5 923.1,152.5 		"/>
		<polygon class="st4" points="998,127.5 1012.4,152.5 983.6,152.5 		"/>
		<polygon class="st4" points="666.1,167.7 680.5,192.7 651.6,192.7 		"/>
		<polygon class="st4" points="725.6,167.7 740,192.7 711.2,192.7 		"/>
		<polygon class="st4" points="785.1,167.7 799.6,192.7 770.7,192.7 		"/>
		<polygon class="st4" points="844.7,167.7 859.1,192.7 830.2,192.7 		"/>
		<polygon class="st4" points="904.2,167.7 918.7,192.7 889.8,192.7 		"/>
		<polygon class="st4" points="963.8,167.7 978.2,192.7 949.3,192.7 		"/>
		<polygon class="st4" points="1023.3,167.7 1037.7,192.7 1008.9,192.7 		"/>
		<polygon class="st4" points="695.8,213 710.3,238 681.4,238 		"/>
		<polygon class="st4" points="756.3,213 770.7,238 741.8,238 		"/>
		<polygon class="st4" points="816.7,213 831.1,238 802.3,238 		"/>
		<polygon class="st4" points="877.1,213 891.6,238 862.7,238 		"/>
		<polygon class="st4" points="937.6,213 952,238 923.1,238 		"/>
		<polygon class="st4" points="998,213 1012.4,238 983.6,238 		"/>
		<polygon class="st4" points="666.1,253.2 680.5,278.2 651.6,278.2 		"/>
		<polygon class="st4" points="725.6,253.2 740,278.2 711.2,278.2 		"/>
		<polygon class="st4" points="785.1,253.2 799.6,278.2 770.7,278.2 		"/>
		<polygon class="st4" points="844.7,253.2 859.1,278.2 830.2,278.2 		"/>
		<polygon class="st4" points="904.2,253.2 918.7,278.2 889.8,278.2 		"/>
		<polygon class="st4" points="963.8,253.2 978.2,278.2 949.3,278.2 		"/>
		<polygon class="st4" points="1023.3,253.2 1037.7,278.2 1008.9,278.2 		"/>
	</g>
</g>
<g>
	<path class="st9" d="M736.8,454c0,26.6-19.7,49-46,52.5c-4.6,0.6-9.3,0.6-13.9,0c-29-3.8-49.4-30.5-45.6-59.5
		c3.8-29,30.5-49.4,59.5-45.6C717.1,404.9,736.8,427.4,736.8,454z"/>
	<path class="st9" d="M930.8,356c0,49.9-37.8,91.7-87.5,96.5c-3.1,0.3-6.3,0.5-9.5,0.5s-6.4-0.2-9.5-0.5c-53.3-5.2-92.3-52.7-87-106
		s52.7-92.3,106-87C892.9,264.4,930.8,306.1,930.8,356z"/>
	<path class="st9" d="M690.8,507v220c0,3.9-3.1,7-7,7s-7-3.1-7-7V507c0-0.2,0-0.3,0-0.5c4.6,0.6,9.3,0.6,13.9,0
		C690.7,506.7,690.8,506.8,690.8,507z"/>
	<path class="st9" d="M843.3,452.5v279c0,5.2-4.3,9.5-9.5,9.5s-9.5-4.3-9.5-9.5v-279c3.1,0.3,6.3,0.5,9.5,0.5
		S840.1,452.8,843.3,452.5z"/>
</g>
<rect x="103.8" y="51" class="st10" width="24" height="228"/>
<text transform="matrix(1 0 0 1 103.88 112.1458)" class="st11 st12">Wondering How  To</text>
<text transform="matrix(1 0 0 1 103.88 169.7458)" class="st11 st12">Grow Your Instagram </text>
<text transform="matrix(1 0 0 1 103.88 227.3457)" class="st11 st12">Audiance?</text>
<g>
	<path class="st13" d="M1100.3,301.8h7.8c0,0,7.1,55,1.9,60.2s-19.4,8.4-21.4,0s0-39.5,0-39.5L1100.3,301.8z"/>
	<ellipse class="st14" cx="1049.5" cy="253.9" rx="47.3" ry="55.3"/>
	<path class="st15" d="M1038.8,264.2c0,0,2.6,21.4-5.2,25.9s9.1,30.4,9.1,30.4l20.1,5.2l13.6-18.8l-2.5-19.4c0,0-15.5-15.5-8.4-29.8
		L1038.8,264.2z"/>
	<path class="st16" d="M1038.8,264.2c0,0,2.6,21.4-5.2,25.9s9.1,30.4,9.1,30.4l20.1,5.2l13.6-18.8l-2.5-19.4c0,0-15.5-15.5-8.4-29.8
		L1038.8,264.2z"/>
	<path class="st15" d="M1009.7,496.1c0,0-7.8,70.5,0,87.4s28.5,64.1,28.5,64.1l-6.5,13.6l17.5-3.9l7.1-13.6c0,0-8.4-33-9.7-44.7
		s-11-33-11-33l18.1-77L1009.7,496.1z"/>
	<path class="st15" d="M1071.1,484.3c0,0,0.7,71.2,5.2,82.2l-2.6,96.5l14.2,1.9c0,0,20.7-80.9,17.5-100.3s0.7-89.3,0.7-89.3
		L1071.1,484.3z"/>
	<circle class="st15" cx="1049.5" cy="248.4" r="24.6"/>
	<path class="st13" d="M1133.3,493.3c0,0-17.5,11.7-24.6,3.2s-94.5,5.2-105.5,2.6s5.8-44,5.8-65.4c0-16,5.8-40.3,8.7-51.5
		c1-3.8,1.6-6.1,1.6-6.1s6.6-18.9,5.4-26.7c-0.1-0.6-0.3-1.2-0.5-1.7c-0.1-0.2-0.2-0.4-0.4-0.6c-3.1-4.1-12-34.3-15.4-47.3
		c-0.6-1.9-1-3.9-1.4-5.8c0-1.9,24-7.8,29.9-8s7.6,8,7.6,8c1.9,1.3,11,24,11,24l8.4-21.4c0,0-0.7-4.5-1.3-4.5s9.6-6.1,9.6-6.1
		s10.5,7.4,16.3,6.1s19.4,10.4,19.4,10.4s-24,60.2-14.2,73.1S1133.3,493.3,1133.3,493.3z"/>
	<path class="st14" d="M1054.3,641.1c0,0-11,11-11,12.3l-9.1-3.9c0,0-3.9,14.2-4.5,16.2s-11.7,19.4-22.7,27.2s0,17.5,9.7,15.5
		c9.7-1.9,34.3-24,34.3-24s16.8,0,22.7-12.9C1073.8,671.5,1058.2,639.8,1054.3,641.1z"/>
	<path class="st14" d="M1086.7,659.7c0,0-16.6-12.1-17.7-0.9s-1.1,35.8-1.1,35.8s-5.2,16.2,11,14.2s17.5-6.5,17.5-6.5l-7.8-31.1
		v-13.6L1086.7,659.7z"/>
	<path class="st16" d="M1023.9,347.1c-3.1-4.1-12-34.3-15.4-47.3h3.1c0,0,7.9,30.9,12.7,47.9C1024.2,347.5,1024,347.3,1023.9,347.1z
		"/>
	<path class="st16" d="M1066.6,389.8c0,0-9.1,0.6-42.1-5.8c-2.3-0.4-4.6-1-6.8-1.7c1-3.8,1.6-6.1,1.6-6.1s6.6-18.9,5.4-26.7
		c1.5,5.4,2.7,9.1,3,9.3c1.3,0.6,42.7,7.8,48.6,10.4S1066.6,389.8,1066.6,389.8z"/>
	<path class="st16" d="M1078.3,305.1c0,0,17.8-2.2,19,0.7s5.6,30.9,7.6,34.5s2.6,25.8-5.2,26.5s-18.1-7.2-16.2-13.6
		S1078.3,305.1,1078.3,305.1z"/>
	<path class="st15" d="M1069.2,364.5c0,0,27.2,3.2,31.7,0s23.3-3.2,19.4,5.8s-37.5,9.7-37.5,9.7h-19.4L1069.2,364.5z"/>
	<path class="st13" d="M1011.6,295.3h-4.5c0,0-9.1,1.9-7.8,30.4s-7.8,47.3,25.3,53.7c33,6.5,42.1,5.8,42.1,5.8s15.5-18.1,9.7-20.7
		s-47.3-9.7-48.5-10.4C1026.5,353.5,1011.6,295.3,1011.6,295.3z"/>
	<path class="st13" d="M1080.8,305.1c0,0,17.8-2.2,19,0.7s5.6,30.9,7.6,34.5s2.6,25.8-5.2,26.5s-18.1-7.2-16.2-13.6
		S1080.8,305.1,1080.8,305.1z"/>
	
		<ellipse transform="matrix(0.6408 -0.7677 0.7677 0.6408 201.873 881.6364)" class="st14" cx="1043.1" cy="225.1" rx="23.3" ry="23.3"/>
	<path class="st15" d="M1096.8,308.1c0,0-11.3-42.5-20.4-42.5s-19.4,2-11.7,10.4s17.5,17.5,18.1,22c0.7,3.8,1.8,7.4,3.2,11
		L1096.8,308.1z"/>
</g>
<g>
	<path class="st17" d="M1088.7,120.9c7.1,1.6,14,3.2,20.8,5"/>
	<path class="st17" d="M968.5,132.3c28.5-1.6,60.6,0.4,94,6.4c24.2,4.3,48,10.7,71.1,19.1"/>
	<path class="st17" d="M942.1,134.9c8.3-1.2,17.2-2.1,26.3-2.6"/>
	<path class="st17" d="M886.2,240.9c-20.9-17.7-31.7-37-28.5-55.1c3.6-20,23.8-35.3,54.4-44.5"/>
	<path class="st17" d="M1213.9,203.3c17.9,16.6,27,34.3,23.9,51.1c-2.7,14.7-14.3,26.9-32.5,36"/>
	<path class="st17" d="M1133.6,157.8c14.9,5.4,29.4,11.9,43.3,19.5"/>
	<path class="st17" d="M847.3,131.7c23.3-12.1,55.6-20,93.4-22.8"/>
	<path class="st17" d="M1251.9,192.9c15.5,13.2,26.7,27,32.4,40.8"/>
	<path class="st17" d="M1109.5,126c12.9,3.3,25.3,7.1,37.2,11.2"/>
	<path class="st17" d="M1142.4,306.7c-32,3.4-69.7,1.9-109.3-5.2c-45-8.1-85.2-22.3-115.8-39.4"/>
	<path class="st17" d="M1012,318.4c-29.5-6.2-58.4-14.9-86.4-26.2"/>
</g>
<circle class="st13" cx="763.5" cy="583.2" r="38.8"/>
<circle class="st17" cx="772.6" cy="567.4" r="38.8"/>
<circle class="st13" cx="1265.8" cy="504.3" r="22.6"/>
<circle class="st17" cx="1271.1" cy="495.1" r="22.6"/>
<circle class="st13" cx="688.2" cy="288.5" r="32.4"/>
<circle class="st17" cx="695.8" cy="270.3" r="32.4"/>
<path class="st13" d="M1231.8,258.7c-5.6-3.2-12.5-3-18,0.3c0-6.4-3.5-12.3-9.1-15.5c-8.6-4.8-20-0.7-24.8,7.9
	c-12.1,21.5,8.6,52.8,8.6,52.8s37.5,1.2,49.5-20.3C1242.8,275.3,1240.3,263.5,1231.8,258.7z"/>
<g id="Layer_1-2">
	<g>
		<path class="st13" d="M1092,114.9c-0.6,2.9-2.8,16.5,5.1,21.8l0,0c8.2,4.7,19.4-3.3,21.8-5.1c2.5,0,4.9-1.1,6.7-2.9
			c2.1-2,3.3-4.6,2.7-7c-0.3-1.1-0.8-2.2-1.3-3.3l0.9-1.5c4.6-7.4,2.3-17.1-5.1-21.7s-17.1-2.3-21.7,5.1l0,0l-0.9,1.5
			c-1.1,0-2.2,0.2-3.2,0.5c-2.4,1-4.3,3-5.1,5.5C1091,110.6,1091,113.1,1092,114.9z"/>
		<path class="st13" d="M1120.2,157.3l-9-14.7c-0.1-0.5-0.9-0.6-1.4-0.4c-12.7,2.4-19.8-2-22.4-13.9c-0.1-0.5-0.7-0.9-1-1l-14.6-0.4
			l-1.6-0.1l0,0c-2.7,0.3-5.2,1.8-6.7,4.1c-2.4,4-1.2,9.1,2.7,11.6l42.3,26.3c4,2.4,9.1,1.2,11.6-2.7
			C1121.7,163.2,1121.7,160,1120.2,157.3z"/>
	</g>
</g>
<g id="Layer_1-2-2">
	<g>
		<path class="st13" d="M879.3,116.5c-15.8,3.4-26.1,15.5-37.9,34.1c15.9,10.3,29.3,19.5,48.6,15.3s30.3-22,38-33.9
			C915.5,122.9,898.4,112.3,879.3,116.5z M888.5,158.8c-9.7,2.3-19.4-3.7-21.6-13.4s3.7-19.4,13.4-21.6c9.7-2.3,19.4,3.7,21.6,13.4
			c0,0.1,0,0.2,0.1,0.2C904.1,147.1,898.1,156.6,888.5,158.8L888.5,158.8z"/>
		<path class="st13" d="M883.3,135c-0.3-1.5-0.1-3,0.6-4.3c-0.5,0-1,0.1-1.5,0.2c-5.7,1.1-9.4,6.7-8.3,12.4s6.7,9.4,12.4,8.3
			c5.7-1.1,9.4-6.7,8.3-12.4c0-0.1,0-0.1,0-0.2c-0.1-0.4-0.2-0.9-0.4-1.3c-2.2,2.7-6.2,3.1-8.9,0.8
			C884.4,137.6,883.6,136.4,883.3,135z"/>
	</g>
</g>
<text transform="matrix(1 0 0 1 97.76 436.7958)" class="st13 st11 st12">F</text>
<text transform="matrix(1 0 0 1 125.7201 436.7958)" class="st13 st11 st12">ol</text>
<text transform="matrix(1 0 0 1 199.24 436.7958)" class="st13 st11 st12">l</text>
<text transform="matrix(1 0 0 1 227.42 436.7958)" class="st13 st11 st12">o</text>
<text transform="matrix(1 0 0 1 269.63 436.7958)" class="st13 st11 st12">wers Ca</text>
<text transform="matrix(1 0 0 1 508.15 436.7958)" class="st13 st11 st12">r</text>
<text transform="matrix(1 0 0 1 542.7401 436.7958)" class="st13 st11 st12">t</text>
<text transform="matrix(1 0 0 1 97.76 494.3958)" class="st13 st11 st12">Can Help</text>
<text transform="matrix(1 0 0 1 97.9601 592.1958)" class="st18 st19">We offer quality services</text>
<text transform="matrix(1 0 0 1 97.9601 635.3958)" class="st18 st19">at the best price.</text>
<path class="st13" d="M960.3,266.9c0.3,3.2,0,6.5-1,9.6c-1,3.2-2.7,6.2-5,8.8c-5.1,5.7-12.7,9.3-22.1,10.3c-3.5,0.4-7,0.3-10.5-0.2
	c-2.7,3.5-6.7,5.7-11.1,6.1l-4.4,0.5l2.8-3.4c1.5-1.8,2.3-4.1,2.3-6.5c-4.4-2.2-8-5.7-10.4-10c-2.2-4.2-2.9-9-2.1-13.6
	c1.1-6,4.2-11.4,8.8-15.4c5.4-4.7,12.1-7.5,19.2-8.1c9.4-1,17.6,0.9,23.8,5.4C956.1,254.1,959.6,260.2,960.3,266.9z"/>
</svg>
